<svg width="45" height="48" viewBox="0 0 45 48" fill="none" xmlns="http://www.w3.org/2000/svg">
<path d="M9.00003 42.6697C7.96906 42.6507 6.98686 42.2272 6.26529 41.4906C5.54372 40.754 5.1406 39.7633 5.14288 38.7321V11.4106H3.85716C2.82619 11.4296 1.84399 11.8531 1.12242 12.5897C0.400847 13.3263 -0.00227365 14.317 9.64681e-06 15.3482V43.7947C-0.00227365 44.8258 0.400847 45.8165 1.12242 46.5531C1.84399 47.2897 2.82619 47.7132 3.85716 47.7322H32.4644C33.4953 47.7132 34.4776 47.2897 35.1991 46.5531C35.9207 45.8165 36.3238 44.8258 36.3215 43.7947V42.6697H9.00003Z" fill="#DB2778"/>
<path d="M19.6071 7.87502H33.9107C34.0802 7.87718 34.2483 7.8454 34.4053 7.78155C34.5623 7.7177 34.7049 7.62308 34.8247 7.50325C34.9445 7.38343 35.0391 7.24083 35.103 7.08387C35.1668 6.9269 35.1986 6.75874 35.1965 6.5893V3.93751C35.1943 2.89387 34.7788 1.89358 34.0409 1.15562C33.3029 0.417649 32.3026 0.00212338 31.259 0H22.1786C21.1349 0.00212338 20.1346 0.417649 19.3967 1.15562C18.6587 1.89358 18.2432 2.89387 18.2411 3.93751V6.5893C18.2671 6.93548 18.4217 7.25939 18.6745 7.49732C18.9273 7.73525 19.26 7.86998 19.6071 7.87502ZM41.0625 3.29465H39.7768C39.6906 3.28732 39.6037 3.29892 39.5224 3.32863C39.4411 3.35835 39.3672 3.40546 39.306 3.46668C39.2448 3.52791 39.1977 3.60176 39.168 3.68308C39.1382 3.76441 39.1266 3.85124 39.134 3.93751V6.5893C39.1404 7.98399 38.5947 9.32456 37.6161 10.3183C36.6375 11.312 35.3054 11.878 33.9107 11.8929H19.6071C18.2125 11.878 16.8804 11.312 15.9018 10.3183C14.9231 9.32456 14.3775 7.98399 14.3839 6.5893V3.93751C14.3912 3.85124 14.3796 3.76441 14.3499 3.68308C14.3202 3.60176 14.2731 3.52791 14.2119 3.46668C14.1507 3.40546 14.0768 3.35835 13.9955 3.32863C13.9142 3.29892 13.8273 3.28732 13.7411 3.29465H12.4553C11.4117 3.29678 10.4114 3.7123 9.67344 4.45027C8.93547 5.18823 8.51995 6.18852 8.51782 7.23216V35.5983C8.51995 36.6419 8.93547 37.6422 9.67344 38.3802C10.4114 39.1182 11.4117 39.5337 12.4553 39.5358H41.0625C42.1062 39.5337 43.1065 39.1182 43.8444 38.3802C44.5824 37.6422 44.9979 36.6419 45.0001 35.5983V7.23216C44.9979 6.18852 44.5824 5.18823 43.8444 4.45027C43.1065 3.7123 42.1062 3.29678 41.0625 3.29465ZM19.6071 31.6608C19.6093 31.8302 19.5775 31.9984 19.5137 32.1554C19.4498 32.3123 19.3552 32.4549 19.2354 32.5747C19.1155 32.6946 18.9729 32.7892 18.816 32.853C18.659 32.9169 18.4909 32.9487 18.3214 32.9465H17.0357C16.8663 32.9487 16.6981 32.9169 16.5411 32.853C16.3842 32.7892 16.2416 32.6946 16.1218 32.5747C16.0019 32.4549 15.9073 32.3123 15.8435 32.1554C15.7796 31.9984 15.7478 31.8302 15.75 31.6608V30.3751C15.7478 30.2056 15.7796 30.0375 15.8435 29.8805C15.9073 29.7235 16.0019 29.581 16.1218 29.4611C16.2416 29.3413 16.3842 29.2467 16.5411 29.1828C16.6981 29.119 16.8663 29.0872 17.0357 29.0894H18.3214C18.4909 29.0872 18.659 29.119 18.816 29.1828C18.9729 29.2467 19.1155 29.3413 19.2354 29.4611C19.3552 29.581 19.4498 29.7235 19.5137 29.8805C19.5775 30.0375 19.6093 30.2056 19.6071 30.3751V31.6608ZM19.6071 25.0715C19.6093 25.2409 19.5775 25.4091 19.5137 25.5661C19.4498 25.723 19.3552 25.8656 19.2354 25.9854C19.1155 26.1053 18.9729 26.1999 18.816 26.2637C18.659 26.3276 18.4909 26.3594 18.3214 26.3572H17.0357C16.8663 26.3594 16.6981 26.3276 16.5411 26.2637C16.3842 26.1999 16.2416 26.1053 16.1218 25.9854C16.0019 25.8656 15.9073 25.723 15.8435 25.5661C15.7796 25.4091 15.7478 25.2409 15.75 25.0715V23.7858C15.7478 23.6163 15.7796 23.4482 15.8435 23.2912C15.9073 23.1342 16.0019 22.9917 16.1218 22.8718C16.2416 22.752 16.3842 22.6574 16.5411 22.5935C16.6981 22.5297 16.8663 22.4979 17.0357 22.5001H18.3214C18.4909 22.4979 18.659 22.5297 18.816 22.5935C18.9729 22.6574 19.1155 22.752 19.2354 22.8718C19.3552 22.9917 19.4498 23.1342 19.5137 23.2912C19.5775 23.4482 19.6093 23.6163 19.6071 23.7858V25.0715ZM19.6071 18.4822C19.6093 18.6516 19.5775 18.8198 19.5137 18.9768C19.4498 19.1337 19.3552 19.2763 19.2354 19.3961C19.1155 19.516 18.9729 19.6106 18.816 19.6744C18.659 19.7383 18.4909 19.7701 18.3214 19.7679H17.0357C16.8663 19.7701 16.6981 19.7383 16.5411 19.6744C16.3842 19.6106 16.2416 19.516 16.1218 19.3961C16.0019 19.2763 15.9073 19.1337 15.8435 18.9768C15.7796 18.8198 15.7478 18.6516 15.75 18.4822V17.1965C15.7478 17.027 15.7796 16.8589 15.8435 16.7019C15.9073 16.5449 16.0019 16.4023 16.1218 16.2825C16.2416 16.1627 16.3842 16.0681 16.5411 16.0042C16.6981 15.9404 16.8663 15.9086 17.0357 15.9108H18.3214C18.4909 15.9086 18.659 15.9404 18.816 16.0042C18.9729 16.0681 19.1155 16.1627 19.2354 16.2825C19.3552 16.4023 19.4498 16.5449 19.5137 16.7019C19.5775 16.8589 19.6093 17.027 19.6071 17.1965V18.4822ZM37.8483 31.6608C37.8504 31.8302 37.8186 31.9984 37.7548 32.1554C37.6909 32.3123 37.5963 32.4549 37.4765 32.5747C37.3567 32.6946 37.2141 32.7892 37.0571 32.853C36.9001 32.9169 36.732 32.9487 36.5625 32.9465H23.5446C23.3752 32.9487 23.207 32.9169 23.0501 32.853C22.8931 32.7892 22.7505 32.6946 22.6307 32.5747C22.5109 32.4549 22.4163 32.3123 22.3524 32.1554C22.2886 31.9984 22.2568 31.8302 22.2589 31.6608V30.3751C22.2568 30.2056 22.2886 30.0375 22.3524 29.8805C22.4163 29.7235 22.5109 29.581 22.6307 29.4611C22.7505 29.3413 22.8931 29.2467 23.0501 29.1828C23.207 29.119 23.3752 29.0872 23.5446 29.0894H36.5625C36.732 29.0872 36.9001 29.119 37.0571 29.1828C37.2141 29.2467 37.3567 29.3413 37.4765 29.4611C37.5963 29.581 37.6909 29.7235 37.7548 29.8805C37.8186 30.0375 37.8504 30.2056 37.8483 30.3751V31.6608ZM37.8483 25.0715C37.8504 25.2409 37.8186 25.4091 37.7548 25.5661C37.6909 25.723 37.5963 25.8656 37.4765 25.9854C37.3567 26.1053 37.2141 26.1999 37.0571 26.2637C36.9001 26.3276 36.732 26.3594 36.5625 26.3572H23.5446C23.3752 26.3594 23.207 26.3276 23.0501 26.2637C22.8931 26.1999 22.7505 26.1053 22.6307 25.9854C22.5109 25.8656 22.4163 25.723 22.3524 25.5661C22.2886 25.4091 22.2568 25.2409 22.2589 25.0715V23.7858C22.2568 23.6163 22.2886 23.4482 22.3524 23.2912C22.4163 23.1342 22.5109 22.9917 22.6307 22.8718C22.7505 22.752 22.8931 22.6574 23.0501 22.5935C23.207 22.5297 23.3752 22.4979 23.5446 22.5001H36.5625C36.732 22.4979 36.9001 22.5297 37.0571 22.5935C37.2141 22.6574 37.3567 22.752 37.4765 22.8718C37.5963 22.9917 37.6909 23.1342 37.7548 23.2912C37.8186 23.4482 37.8504 23.6163 37.8483 23.7858V25.0715ZM37.8483 18.4822C37.8504 18.6516 37.8186 18.8198 37.7548 18.9768C37.6909 19.1337 37.5963 19.2763 37.4765 19.3961C37.3567 19.516 37.2141 19.6106 37.0571 19.6744C36.9001 19.7383 36.732 19.7701 36.5625 19.7679H23.5446C23.3752 19.7701 23.207 19.7383 23.0501 19.6744C22.8931 19.6106 22.7505 19.516 22.6307 19.3961C22.5109 19.2763 22.4163 19.1337 22.3524 18.9768C22.2886 18.8198 22.2568 18.6516 22.2589 18.4822V17.1965C22.2568 17.027 22.2886 16.8589 22.3524 16.7019C22.4163 16.5449 22.5109 16.4023 22.6307 16.2825C22.7505 16.1627 22.8931 16.0681 23.0501 16.0042C23.207 15.9404 23.3752 15.9086 23.5446 15.9108H36.5625C36.732 15.9086 36.9001 15.9404 37.0571 16.0042C37.2141 16.0681 37.3567 16.1627 37.4765 16.2825C37.5963 16.4023 37.6909 16.5449 37.7548 16.7019C37.8186 16.8589 37.8504 17.027 37.8483 17.1965V18.4822Z" fill="#DB2778"/>
</svg>
