<svg width="45" height="34" viewBox="0 0 45 34" fill="none" xmlns="http://www.w3.org/2000/svg">
<path d="M43.1822 15.0042H1.81775C0.813867 15.0042 0 16.0506 0 17.3417C0 18.6327 0.813867 19.6791 1.81775 19.6791H43.1822C44.1862 19.6791 45 18.6327 45 17.3417C45 16.0508 44.1862 15.0042 43.1822 15.0042Z" fill="#DB2778"/>
<path d="M43.1822 0.724243H1.81775C0.813867 0.724243 0 1.77079 0 3.06169C0 4.35258 0.813867 5.39913 1.81775 5.39913H43.1822C44.1862 5.39913 45 4.35258 45 3.06169C45 1.77079 44.1862 0.724243 43.1822 0.724243Z" fill="#DB2778"/>
<path d="M43.1822 29.2842H1.81775C0.813867 29.2842 0 30.3306 0 31.6216C0 32.9126 0.813867 33.9591 1.81775 33.9591H43.1822C44.1862 33.9591 45 32.9126 45 31.6216C45 30.3306 44.1862 29.2842 43.1822 29.2842Z" fill="#DB2778"/>
</svg>
