<svg width="46" height="46" viewBox="0 0 46 46" fill="none" xmlns="http://www.w3.org/2000/svg">
<path d="M42.8817 7.7897C41.4645 6.37255 40.7504 7.08675 39.3334 5.66969C37.9162 4.25254 38.6305 3.53843 37.2133 2.12136C35.7965 0.704388 35.0823 1.4185 33.6653 0.00152588L31.7277 7.49044C34.0797 8.93844 36.065 10.9236 37.5132 13.2754L45.0015 11.3379C43.5845 9.92079 44.2987 9.20668 42.8817 7.7897Z" fill="#DB2778"/>
<path d="M7.51399 31.7284L0.00152588 33.6653C1.4185 35.0823 0.704389 35.7965 2.12145 37.2135C3.5386 38.6306 4.25272 37.9163 5.66978 39.3335C7.08693 40.7506 6.37264 41.4648 7.78979 42.8818C9.20677 44.2988 9.92097 43.5847 11.3379 45.0017L13.2749 37.49C10.9344 36.0455 8.95804 34.0689 7.51399 31.7284Z" fill="#DB2778"/>
<path d="M21.0439 22.6646C20.5773 18.4648 20.1366 14.4979 15.6882 10.0418L15.3384 9.69133C10.8614 12.2042 7.83569 16.996 7.83569 22.4954C7.83569 30.5997 14.4054 37.1694 22.5097 37.1694C23.9876 37.1694 25.4141 36.95 26.7595 36.5435C22.0319 31.556 21.5299 27.0382 21.0439 22.6646Z" fill="#DB2778"/>
<path d="M22.5096 7.82143C21.0236 7.82143 19.5896 8.04309 18.2379 8.45389C22.9723 13.4445 23.4745 17.9647 23.9608 22.3406C24.4273 26.5388 24.8678 30.5044 29.3113 34.9582L29.6621 35.3098C34.1493 32.7999 37.1836 28.0023 37.1836 22.4952C37.1835 14.3912 30.6138 7.82143 22.5096 7.82143Z" fill="#DB2778"/>
</svg>
