<svg width="20" height="17" viewBox="0 0 20 17" fill="none" xmlns="http://www.w3.org/2000/svg">
<path d="M19.5467 1.88974C19.2325 2.02909 18.9095 2.1467 18.5794 2.24219C18.9702 1.80025 19.2681 1.28025 19.45 0.711223C19.4908 0.583675 19.4485 0.444063 19.3437 0.360644C19.239 0.27716 19.0935 0.26716 18.9782 0.335483C18.2772 0.751223 17.521 1.05 16.728 1.22471C15.9293 0.444192 14.8444 0 13.7228 0C11.3554 0 9.42934 1.92599 9.42934 4.29334C9.42934 4.47979 9.44114 4.66521 9.4645 4.84805C6.52677 4.59011 3.79561 3.14618 1.92014 0.84561C1.8533 0.76361 1.75033 0.719417 1.64491 0.727869C1.53943 0.736127 1.44465 0.79561 1.39136 0.887029C1.01098 1.53974 0.809882 2.28625 0.809882 3.0458C0.809882 4.08031 1.17924 5.06185 1.83169 5.82882C1.6333 5.76011 1.44078 5.67424 1.25704 5.57224C1.1584 5.51734 1.03801 5.51818 0.940011 5.57437C0.841946 5.63056 0.780463 5.73392 0.777882 5.84688C0.777431 5.86592 0.777431 5.88495 0.777431 5.90424C0.777431 7.44843 1.60852 8.83868 2.87917 9.59642C2.77 9.58552 2.66091 9.56971 2.55252 9.549C2.44078 9.52765 2.32588 9.56681 2.25052 9.65203C2.17504 9.73719 2.15007 9.8559 2.18485 9.96429C2.65517 11.4327 3.86607 12.5127 5.32993 12.842C4.11581 13.6025 2.72736 14.0008 1.26982 14.0008C0.965688 14.0008 0.659818 13.9829 0.360464 13.9475C0.211755 13.9298 0.0695618 14.0176 0.0189168 14.1591C-0.0317282 14.3005 0.0219491 14.4583 0.148465 14.5394C2.02091 15.7399 4.186 16.3745 6.40954 16.3745C10.7808 16.3745 13.5153 14.3132 15.0394 12.584C16.9401 10.4278 18.0301 7.57385 18.0301 4.75392C18.0301 4.63611 18.0283 4.51715 18.0247 4.39857C18.7746 3.8336 19.4202 3.14986 19.9456 2.36399C20.0254 2.24464 20.0167 2.0869 19.9243 1.97703C19.8319 1.86709 19.6781 1.83154 19.5467 1.88974Z" fill="#DB2778"/>
</svg>
