<svg width="45" height="42" viewBox="0 0 45 42" fill="none" xmlns="http://www.w3.org/2000/svg">
<path d="M44.8268 13.4946L37.644 0.696554C37.4026 0.266596 36.946 0 36.4506 0H8.55032C8.05493 0 7.59835 0.266415 7.35694 0.696554L0.173172 13.4946C-0.0995741 13.9805 -0.0465554 14.5827 0.306903 15.0143L21.4419 40.8103C21.4486 40.8187 21.4565 40.8257 21.4634 40.8339C21.4853 40.8594 21.5079 40.8842 21.5317 40.9081C21.5345 40.9109 21.5368 40.9141 21.5396 40.9168C21.5458 40.9228 21.5521 40.9284 21.5585 40.9342C21.5607 40.9364 21.5631 40.938 21.5652 40.9402C21.5895 40.9628 21.6144 40.9846 21.6403 41.0056C21.6522 41.0152 21.6642 41.0248 21.6764 41.034C21.7028 41.0539 21.7301 41.0726 21.758 41.0907C21.7711 41.0992 21.7841 41.1077 21.7974 41.1159C21.8209 41.1298 21.8453 41.1427 21.8697 41.1555C21.8797 41.1606 21.8894 41.1662 21.8996 41.1711C21.9089 41.1756 21.918 41.1802 21.9273 41.1845C21.9544 41.197 21.9825 41.2077 22.0109 41.2186C22.0286 41.2254 22.0459 41.2329 22.0639 41.239C22.0674 41.2401 22.0703 41.2417 22.0738 41.2428C22.075 41.2432 22.0763 41.2434 22.0776 41.2437C22.0896 41.2477 22.1025 41.2499 22.1149 41.2535C22.161 41.2671 22.2079 41.2781 22.2552 41.2868C22.2749 41.2905 22.2944 41.2941 22.3143 41.2968C22.3706 41.3046 22.4276 41.3095 22.4852 41.3102C22.4904 41.3102 22.4957 41.3115 22.5012 41.3115H22.5014H22.5015C22.507 41.3115 22.5123 41.3102 22.5176 41.3102C22.5753 41.3095 22.6324 41.3046 22.6887 41.2968C22.7083 41.2941 22.7277 41.2905 22.7471 41.287C22.7951 41.2783 22.8423 41.2671 22.8885 41.2533C22.9004 41.2499 22.9128 41.2477 22.9246 41.2439C22.9261 41.2434 22.9275 41.2434 22.9288 41.2428C22.9324 41.2417 22.9354 41.2401 22.9388 41.2388C22.9567 41.2329 22.9736 41.2254 22.9911 41.2189C23.0195 41.2081 23.048 41.1972 23.0753 41.1847C23.0848 41.1803 23.0942 41.1756 23.1035 41.1711C23.1132 41.1664 23.1225 41.161 23.1318 41.1563C23.1565 41.1434 23.1811 41.1304 23.2048 41.1162C23.2183 41.1081 23.2314 41.0994 23.2449 41.0907C23.2726 41.0728 23.2999 41.0541 23.3258 41.0344C23.3382 41.0251 23.3502 41.0155 23.3621 41.0058C23.3883 40.9847 23.4133 40.9628 23.4375 40.9402C23.4399 40.9378 23.4424 40.936 23.4448 40.9339C23.4502 40.9286 23.4561 40.9237 23.4615 40.9183C23.4646 40.9152 23.4674 40.9118 23.4705 40.9087C23.4949 40.8842 23.518 40.8587 23.5402 40.8326C23.5468 40.825 23.5541 40.8183 23.5605 40.8105L44.6931 15.0143C45.0466 14.5827 45.0996 13.9805 44.8268 13.4946ZM25.1975 2.71685L29.0677 12.7982H15.9341L19.8056 2.71685H25.1975ZM29.163 15.5149L22.5014 35.6123L15.839 15.5149H29.163ZM12.9616 15.5149L18.8873 33.3904L4.24177 15.5149H12.9616ZM32.0404 15.5149H40.7586L26.1156 33.3898L32.0404 15.5149ZM41.3063 12.7982H31.9928L28.1226 2.71685H35.6484L41.3063 12.7982ZM9.35253 2.71685H16.8803L13.009 12.7982H3.69373L9.35253 2.71685Z" fill="#DB2778"/>
</svg>
